<svg xmlns="http://www.w3.org/2000/svg" viewBox="0 0 24 24" fill="none" stroke="#6366F1" stroke-width="2" stroke-linecap="round" stroke-linejoin="round">
  <circle cx="12" cy="12" r="3"/>
  <path d="M12 4.5a2.5 2.5 0 0 0-4.96-.46 2.5 2.5 0 0 0-1.98 3 2.5 2.5 0 0 0-1.32 4.24 3 3 0 0 0 .34 5.58 2.5 2.5 0 0 0 2.96 3.08 2.5 2.5 0 0 0 4.91.05L12 20V4.5Z"/>
  <path d="M16 8.5a2.5 2.5 0 0 1 3.9-.8 2.5 2.5 0 0 1 .77 3.04 2.5 2.5 0 0 1 1.04 4.04 2.5 2.5 0 0 1-1.2 4.09 2.5 2.5 0 0 1-3.3 1.05A2.5 2.5 0 0 1 16 19.5V8.5Z"/>
</svg>

